<svg width="554" height="236" viewBox="0 0 554 236" fill="none" xmlns="http://www.w3.org/2000/svg">
<path d="M1.85903 42.2565C-0.619972 44.7355 -0.619972 48.7547 1.85903 51.2337L42.2567 91.6314C44.7357 94.1104 48.7549 94.1104 51.2339 91.6314C53.7129 89.1524 53.7129 85.1331 51.2339 82.6541L15.3249 46.7451L51.2339 10.8361C53.7129 8.3571 53.7129 4.33785 51.2339 1.85884C48.7549 -0.620155 44.7357 -0.620156 42.2567 1.85884L1.85903 42.2565ZM6.34766 46.7451L6.34766 53.093L553.921 53.093L553.921 46.7452L553.921 40.3973L6.34766 40.3972L6.34766 46.7451Z" fill="#FEEBD7"/>
<path d="M1.85903 184.67C-0.619972 187.149 -0.619972 191.168 1.85903 193.647L42.2567 234.044C44.7357 236.523 48.7549 236.523 51.2339 234.044C53.7129 231.565 53.7129 227.546 51.2339 225.067L15.3249 189.158L51.2339 153.249C53.7129 150.77 53.7129 146.751 51.2339 144.272C48.7549 141.793 44.7357 141.793 42.2567 144.272L1.85903 184.67ZM6.34766 189.158L6.34766 195.506L553.921 195.506L553.921 189.158L553.921 182.81L6.34766 182.81L6.34766 189.158Z" fill="#FEEBD7"/>
</svg>
