<svg width="135" height="157" viewBox="0 0 135 157" fill="none" xmlns="http://www.w3.org/2000/svg">
<path d="M101.671 22.249H63.2822V117.03C63.2822 124.891 61.9825 131.343 59.3833 136.386C56.784 141.429 53.285 145.434 48.8862 148.401C44.4875 151.219 39.3889 153.221 33.5905 154.408C27.9921 155.595 22.0938 156.188 15.8955 156.188C12.8964 156.188 10.1971 156.188 7.79779 156.188C5.39847 156.188 2.79921 156.04 0 155.743V133.494C1.79949 133.642 3.69895 133.716 5.69839 133.716C7.69783 133.716 9.59729 133.716 11.3968 133.716C16.5953 133.716 20.9941 132.752 24.5931 130.824C28.392 128.896 30.2914 124.891 30.2914 118.81V0H134.662V155.743H101.671V22.249Z" fill="#8A181A"/>
</svg>
