<svg width="1017" height="1030" viewBox="0 0 1017 1030" fill="none" xmlns="http://www.w3.org/2000/svg">
<path d="M249.029 1013.54L349.292 987.318L357.935 997.927L404.584 955.556L414.909 981.011C429.516 958.459 469.114 901.885 447.173 859.022C439.42 804.435 482.051 762.906 504.335 748.966L501.476 1029.25L513.812 1023.13C521.711 1021.58 520.196 750.367 519.344 746.022C517.789 738.098 545.058 757.931 552.9 764.459C581.957 778.776 585.151 843.854 583.116 874.604C617.014 945.391 636.966 961.657 642.704 960.942L649.208 931.366L711.482 974.932L713.85 953.55L753.347 966.721L750.945 954.478L816.934 954.25L789.268 880.108L828.368 872.439L824.96 855.061L881.043 844.062L872.677 801.407L922.162 781.858L917.437 757.766L970.027 731.046L957.488 727.763L1003.68 660.053L936.087 645.83L940.06 638.899L918.523 635.74L932.292 626.477L924.903 618.083L990.866 561.26L927.354 532.292L996.785 455.512L966.62 437.64L997.663 367.979L978.039 359.934L1016.92 242.39L888.497 283.983L888.953 267.487L817.522 308.977L813.571 288.834L700.974 363.006L721.166 261.021L708.922 263.423L708.034 162.701L613.169 201.814L566.839 116.158L555.045 125.033L525.164 52.1457L513.293 60.6262L486.689 19.0874L478.597 30.1079L448.083 -0.000222237L411.418 74.4547L400.707 67.9423L359.921 125.569L316.39 114.83L311.359 172.827L301.091 174.841L298.383 223.769L269.551 229.424L271.333 238.508L219.763 224.424L290.075 419.807L168.417 341.132L163.647 350.27L105.014 325.267L106.718 333.956L0.000327615 291.724L19.6756 392.042L10.1968 393.901L32.7809 433.767L5.98634 443.534L41.9072 505.393L14.447 524.314L89.3524 588.37L11.9657 618.314L146.224 704.771L85.1308 725.777L86.9125 734.861L5.10381 765.261L76.4766 802.941L70.6843 811.049L121.705 845.338L112.01 862.825L176.622 893.218L162.521 927.975L231.057 921.916L226.474 944.552L256.095 938.743L249.029 1013.54Z" fill="url(#paint0_linear_43_56)"/>
<defs>
<linearGradient id="paint0_linear_43_56" x1="-24.8352" y1="612.612" x2="1048.25" y2="402.148" gradientUnits="userSpaceOnUse">
<stop stop-color="#204A25"/>
<stop offset="0.524038" stop-color="#266739"/>
</linearGradient>
</defs>
</svg>
