<svg width="1017" height="1030" viewBox="0 0 1017 1030" fill="none" xmlns="http://www.w3.org/2000/svg">
<path d="M89.1771 740.954L94.3538 739.03L92.5989 730.082L148.337 710.918L161.009 706.561L149.743 699.306L26.2258 619.766L91.6982 594.432L101.849 590.505L93.5768 583.43L25.0971 524.87L45.5949 510.746L50.5491 507.332L47.5284 502.13L15.5047 446.984L35.0069 439.875L42.2215 437.244L38.4363 430.564L20.2969 398.544L27.305 397.17L8.6677 302.144L104.326 340L115.386 344.376L113.755 336.061L161.097 356.25L166.628 358.607L169.409 353.278L170.877 350.464L286.545 425.265L302.709 435.719L296.191 417.606L230.112 233.989L269.62 244.778L279.728 247.538L277.181 234.552L304.593 229.175L304.873 224.129L307.301 180.247L317.412 178.264L317.835 173.388L322.209 122.961L358.365 131.88L362.667 132.941L365.227 129.324L402.51 76.6471L408.041 80.0088L414.111 83.6996L417.249 77.326L449.932 10.957L474.032 34.735L479.385 40.0174L483.836 33.9545L486.323 30.5679L507.819 64.1314L511.507 69.8896L517.071 65.9154L522.263 62.2072L549.03 127.499L552.225 135.29L558.954 130.227L564.714 125.893L607.453 204.907L610.236 210.054L615.647 207.824L701.619 172.377L702.422 263.48L702.491 271.308L712.907 269.265L694.597 361.744L691.582 376.977L704.549 368.435L809.057 299.591L812.899 319.178L820.787 314.597L882.132 278.966L881.999 283.803L881.745 293.002L890.499 290.167L1006.72 252.526L971.868 357.892L969.964 363.649L975.573 365.948L988.999 371.453L960.683 434.994L958.327 440.281L963.307 443.232L986.629 457.051L922.533 527.932L916.575 534.52L924.656 538.205L978.931 562.962L920.661 613.158L915.684 617.446L920.024 622.378L922.521 625.217L914.894 630.347L900.944 639.732L917.58 642.171L929.675 643.946L926.005 650.35L934.749 652.191L992.836 664.414L952.119 724.099L946.924 731.715L951.83 733.001L914.492 751.972L910.113 754.196L914.742 777.801L870.289 795.362L865.257 797.35L873.413 838.934L817.33 849.934L820.739 867.312L780.501 875.204L783.178 882.38L807.582 947.783L750.923 947.978L743.052 948.005L744.822 957.027L715.907 947.384L708.275 944.84L707.39 952.834L706.227 963.325L652.934 926.041L644.952 920.456L642.859 929.97L638.177 951.264C635.696 949.042 632.503 945.63 628.607 940.604C619.193 928.46 606.205 907.583 589.707 873.311C590.618 857.518 590.205 833.929 586.052 812.152C583.899 800.861 580.691 789.779 575.965 780.448C571.381 771.399 565.105 763.49 556.482 758.991C552.139 755.438 543.577 749.05 536.06 744.32C532.239 741.916 528.178 739.609 524.944 738.496C524.092 738.203 523.11 737.924 522.078 737.782C521.125 737.651 519.608 737.558 517.969 738.102C516.054 738.739 514.255 740.175 513.35 742.422C512.653 744.151 512.722 745.786 512.902 746.91C512.906 746.984 512.917 747.159 512.931 747.475C512.956 748.058 512.983 748.899 513.01 749.997C513.065 752.186 513.121 755.294 513.175 759.202C513.282 767.012 513.38 777.95 513.449 790.971C513.588 817.009 513.61 851.34 513.359 885.579C513.109 919.832 512.585 953.938 511.633 979.552C511.157 992.378 510.577 1002.97 509.882 1010.35C509.543 1013.95 509.19 1016.61 508.85 1018.34L508.084 1018.72L510.835 749.032L510.956 737.156L500.888 743.455C489.034 750.87 472.098 765.373 459.061 785.177C445.98 805.046 436.578 830.655 440.737 859.936L440.891 861.014L441.387 861.984C451.054 880.869 447.471 903.454 438.717 925.206C432.288 941.18 423.43 955.835 416.249 967.022L410.608 953.112L407.107 944.483L400.214 950.744L358.641 988.504L354.331 983.212L351.691 979.971L347.647 981.029L256.373 1004.9L262.566 939.354L263.386 930.689L234.776 936.3L237.428 923.205L239.156 914.674L230.485 915.441L172.542 920.564L182.645 895.662L184.96 889.957L179.389 887.337L121.064 859.901L127.39 848.49L130.283 843.272L125.331 839.943L79.86 809.386L81.7653 806.719L86.0901 800.665L79.5107 797.193L20.9825 766.295L89.1771 740.954Z" stroke="#204A25" stroke-width="13"/>
</svg>
