<svg width="106" height="161" viewBox="0 0 106 161" fill="none" xmlns="http://www.w3.org/2000/svg">
<path d="M34.7164 122.525C34.7164 128.2 36.2944 132.232 39.4505 134.621C42.8169 136.861 47.2354 137.981 52.7058 137.981C58.1763 137.981 62.4896 136.861 65.6456 134.621C69.012 132.232 70.6952 128.2 70.6952 122.525V37.8551C70.6952 32.1806 69.012 28.2233 65.6456 25.9834C62.4896 23.5941 58.1763 22.3995 52.7058 22.3995C47.2354 22.3995 42.8169 23.5941 39.4505 25.9834C36.2944 28.2233 34.7164 32.1806 34.7164 37.8551V122.525ZM0 39.4231C0 26.73 4.52366 17.0236 13.571 10.3038C22.6183 3.43458 35.6632 0 52.7058 0C69.7485 0 82.7934 3.43458 91.8407 10.3038C100.888 17.0236 105.412 26.73 105.412 39.4231V120.957C105.412 133.65 100.888 143.431 91.8407 150.301C82.7934 157.02 69.7485 160.38 52.7058 160.38C35.6632 160.38 22.6183 157.02 13.571 150.301C4.52366 143.431 0 133.65 0 120.957V39.4231Z" fill="#8A181A"/>
</svg>
