<svg width="395" height="391" viewBox="0 0 395 391" fill="none" xmlns="http://www.w3.org/2000/svg">
<path d="M246.021 308.702L207.305 292.435L183.17 258.054L178.067 280.153L155.966 270.871L142.108 301.132L142.071 301.116C140.617 303.934 137.881 305.644 135.088 305.683L128.568 319.92L123.203 317.461L129.722 303.224C127.927 301.081 127.442 297.896 128.618 294.952L128.581 294.936L142.238 265.106L119.858 255.704L89.7426 390.33L246.021 308.702Z" fill="#8A181A"/>
<path d="M183.175 258.053L167.622 275.449L177.998 279.685L183.175 258.053Z" fill="#501414"/>
<path d="M207.051 292.323L94.3901 385.023L177.813 280.041L182.916 257.942L207.051 292.323Z" fill="#7A191B"/>
<path d="M0 93.9355L31.3403 113.399L47.5261 146.563L55.0081 128.096L72.8994 139.205L89.1047 114.866L89.134 114.886C90.7858 112.642 93.3954 111.537 95.8243 111.889L103.448 100.438L107.763 103.313L100.14 114.763C101.4 116.871 101.381 119.702 99.9538 122.092L99.9831 122.112L84.0124 146.103L102.129 157.353L146.864 44.7207L0 93.9355Z" fill="#8A181A"/>
<path d="M47.5195 146.565L63.4169 133.623L55.0015 128.514L47.5195 146.565Z" fill="#501414"/>
<path d="M31.5371 113.533L142.091 48.6826L55.2048 128.23L47.7228 146.697L31.5371 113.533Z" fill="#7A191B"/>
<path d="M305.504 18.8821L304.594 47.1765L288.766 70.6563L303.908 68.5433L303.39 84.6946L325.782 86.1256L325.78 86.1526C327.905 86.3893 329.64 87.6995 330.338 89.4486L340.873 90.1216L340.618 94.0923L330.084 93.4192C329.167 95.0656 327.278 96.1387 325.142 96.1077L325.14 96.1347L303.07 94.7263L302.544 111.081L394.556 97.5961L305.504 18.8821Z" fill="#8A181A"/>
<path d="M288.76 70.6521L303.46 76.2512L303.626 68.6986L288.76 70.6521Z" fill="#501414"/>
<path d="M304.582 47.3596L390.094 95.9451L303.896 68.7263L288.754 70.8393L304.582 47.3596Z" fill="#7A191B"/>
<path d="M219.342 210.938L234.41 202.975L251.378 204.25L245.789 196.961L254.389 192.414L248.506 180.277L248.521 180.27C248.015 179.088 248.187 177.789 248.895 176.903L246.127 171.192L248.279 170.141L251.047 175.852C252.18 175.84 253.3 176.508 253.917 177.634L253.931 177.627L259.731 189.59L268.44 184.986L234.138 140.887L219.342 210.938Z" fill="#8A181A"/>
<path d="M251.378 204.251L249.953 194.893L245.953 197.059L251.378 204.251Z" fill="#501414"/>
<path d="M234.508 202.924L234.595 143.711L245.887 196.91L251.476 204.199L234.508 202.924Z" fill="#7A191B"/>
</svg>
