<svg width="301" height="231" viewBox="0 0 301 231" fill="none" xmlns="http://www.w3.org/2000/svg">
<path d="M0 100.608L64.0424 140.397L97.1172 208.192L112.406 170.441L148.966 193.149L182.081 143.395L182.141 143.435C185.516 138.848 190.849 136.589 195.812 137.308L211.391 113.901L220.209 119.778L204.63 143.185C207.207 147.493 207.167 153.28 204.251 158.168L204.311 158.208L171.675 207.252L208.695 230.25L300.11 0L0 100.608Z" fill="#FAFAFA"/>
<path d="M97.1074 208.192L129.593 181.736L112.397 171.291L97.1074 208.192Z" fill="#B7B6B6"/>
<path d="M64.4531 140.667L290.364 8.0957L112.817 170.711L97.5279 208.461L64.4531 140.667Z" fill="#E7E7E7"/>
</svg>
